NotoSerif-Bold.ufo
<glyph name="uni0243" format="2">
  <advance width="720"/>
  <unicode hex="0243"/>
  <anchor x="360" y="0" name="bottom"/>
  <anchor x="360" y="714" name="top"/>
  <anchor x="700" y="714" name="topright"/>
  <outline>
    <contour>
      <point x="27" y="167" type="line"/>
      <point x="429" y="167" type="line"/>
      <point x="429" y="237" type="line"/>
      <point x="27" y="237" type="line"/>
    </contour>
    <component base="B"/>
  </outline>
</glyph>
<glyph name="uni0289" format="2">
  <advance width="691"/>
  <unicode hex="0289"/>
  <anchor x="346" y="0" name="bottom"/>
  <anchor x="346" y="536" name="top"/>
  <anchor x="661" y="536" name="topright"/>
  <outline>
    <contour>
      <point x="11" y="245" type="line"/>
      <point x="676" y="245" type="line"/>
      <point x="676" y="311" type="line"/>
      <point x="11" y="311" type="line"/>
    </contour>
    <component base="u"/>
  </outline>
</glyph>
<glyph name="arrowheadrightbelowcomb" format="2">
  <unicode hex="0355"/>
  <anchor x="0" y="0" name="_bottom"/>
  <anchor x="0" y="-240" name="bottom"/>
  <outline>
    <contour>
      <point x="-96" y="-189" type="curve"/>
      <point x="-96" y="-240" type="line"/>
      <point x="-86" y="-240" type="line"/>
      <point x="-20" y="-203"/>
      <point x="35" y="-178"/>
      <point x="96" y="-169" type="curve"/>
      <point x="96" y="-111" type="line"/>
      <point x="36" y="-96"/>
      <point x="-21" y="-76"/>
      <point x="-86" y="-40" type="curve"/>
      <point x="-96" y="-40" type="line"/>
      <point x="-96" y="-91" type="line"/>
      <point x="-71" y="-108"/>
      <point x="-36" y="-127"/>
      <point x="-2" y="-140" type="curve"/>
      <point x="-41" y="-154"/>
      <point x="-79" y="-177"/>
    </contour>
  </outline>
</glyph>
<glyph name="uni049E" format="2">
  <advance width="781"/>
  <unicode hex="049E"/>
  <anchor x="391" y="0" name="bottom"/>
  <anchor x="391" y="714" name="top"/>
  <outline>
    <contour>
      <point x="23" y="530" type="line"/>
      <point x="404" y="530" type="line"/>
      <point x="404" y="586" type="line"/>
      <point x="23" y="586" type="line"/>
    </contour>
    <component base="afii10028"/>
  </outline>
</glyph>
<glyph name="uni052D" format="2">
  <advance width="711"/>
  <unicode hex="052D"/>
  <anchor x="356" y="-210" name="bottom"/>
  <anchor x="356" y="536" name="top"/>
  <outline>
    <contour>
      <point x="16" y="-210" type="line"/>
      <point x="92" y="-210" type="line"/>
      <point x="97" y="-137" type="line" smooth="yes"/>
      <point x="103" y="-37"/>
      <point x="124" y="0"/>
      <point x="200" y="0" type="curve" smooth="yes"/>
      <point x="521" y="0" type="line" smooth="yes"/>
      <point x="588" y="0"/>
      <point x="610" y="-30"/>
      <point x="617" y="-137" type="curve" smooth="yes"/>
      <point x="622" y="-210" type="line"/>
      <point x="698" y="-210" type="line"/>
      <point x="698" y="58" type="line"/>
      <point x="679" y="58" type="line" smooth="yes"/>
      <point x="643" y="58"/>
      <point x="624" y="81"/>
      <point x="624" y="130" type="curve" smooth="yes"/>
      <point x="624" y="411" type="line" smooth="yes"/>
      <point x="624" y="469"/>
      <point x="667" y="471"/>
      <point x="675" y="475" type="curve" smooth="yes"/>
      <point x="698" y="475" type="line"/>
      <point x="698" y="536" type="line"/>
      <point x="417" y="536" type="line"/>
      <point x="268" y="320" type="line"/>
      <point x="268" y="325"/>
      <point x="268" y="335"/>
      <point x="268" y="341" type="curve" smooth="yes"/>
      <point x="268" y="408" type="line" smooth="yes"/>
      <point x="268" y="459"/>
      <point x="279" y="475"/>
      <point x="310" y="475" type="curve" smooth="yes"/>
      <point x="316" y="475" type="line"/>
      <point x="316" y="536" type="line"/>
      <point x="7" y="536" type="line"/>
      <point x="7" y="475" type="line"/>
      <point x="13" y="475" type="line" smooth="yes"/>
      <point x="47" y="475"/>
      <point x="73" y="461"/>
      <point x="73" y="407" type="curve" smooth="yes"/>
      <point x="73" y="312" type="line" smooth="yes"/>
      <point x="73" y="247"/>
      <point x="104" y="200"/>
      <point x="174" y="184" type="curve"/>
      <point x="89" y="65" type="line"/>
      <point x="16" y="65" type="line"/>
    </contour>
    <contour>
      <point x="169" y="65" type="line"/>
      <point x="246" y="177" type="line"/>
      <point x="248" y="177"/>
      <point x="249" y="177"/>
      <point x="251" y="177" type="curve" smooth="yes"/>
      <point x="310" y="177"/>
      <point x="374" y="198"/>
      <point x="442" y="248" type="curve"/>
      <point x="442" y="65" type="line"/>
    </contour>
    <contour>
      <point x="308" y="269" type="curve"/>
      <point x="441" y="464" type="line"/>
      <point x="441" y="318" type="line"/>
      <point x="386" y="277"/>
      <point x="348" y="269"/>
    </contour>
  </outline>
</glyph>
<glyph name="uni1ABF" format="2">
  <unicode hex="1ABF"/>
  <anchor x="0" y="0" name="_bottom"/>
  <outline>
    <contour>
      <point x="-43" y="-278" type="line"/>
      <point x="0" y="-170" type="line"/>
      <point x="40" y="-278" type="line"/>
      <point x="98" y="-278" type="line"/>
      <point x="156" y="-119" type="line" smooth="yes"/>
      <point x="165" y="-94"/>
      <point x="172" y="-88"/>
      <point x="189" y="-88" type="curve" smooth="yes"/>
      <point x="195" y="-88" type="line"/>
      <point x="195" y="-64" type="line"/>
      <point x="87" y="-64" type="line"/>
      <point x="87" y="-88" type="line"/>
      <point x="90" y="-88" type="line" smooth="yes"/>
      <point x="110" y="-88"/>
      <point x="120" y="-94"/>
      <point x="120" y="-108" type="curve" smooth="yes"/>
      <point x="120" y="-112"/>
      <point x="118" y="-121"/>
      <point x="116" y="-128" type="curve" smooth="yes"/>
      <point x="98" y="-182" type="line" smooth="yes"/>
      <point x="95" y="-192"/>
      <point x="92" y="-200"/>
      <point x="90" y="-212" type="curve"/>
      <point x="88" y="-212" type="line"/>
      <point x="87" y="-204"/>
      <point x="85" y="-193"/>
      <point x="82" y="-184" type="curve" smooth="yes"/>
      <point x="39" y="-66" type="line"/>
      <point x="9" y="-66" type="line"/>
      <point x="-36" y="-175" type="line" smooth="yes"/>
      <point x="-41" y="-186"/>
      <point x="-45" y="-199"/>
      <point x="-47" y="-211" type="curve"/>
      <point x="-49" y="-211" type="line"/>
      <point x="-51" y="-200"/>
      <point x="-56" y="-182"/>
      <point x="-61" y="-163" type="curve" smooth="yes"/>
      <point x="-72" y="-123" type="line" smooth="yes"/>
      <point x="-74" y="-117"/>
      <point x="-76" y="-109"/>
      <point x="-76" y="-105" type="curve" smooth="yes"/>
      <point x="-76" y="-92"/>
      <point x="-67" y="-88"/>
      <point x="-49" y="-88" type="curve" smooth="yes"/>
      <point x="-43" y="-88" type="line"/>
      <point x="-43" y="-64" type="line"/>
      <point x="-192" y="-64" type="line"/>
      <point x="-192" y="-88" type="line"/>
      <point x="-190" y="-88" type="line" smooth="yes"/>
      <point x="-172" y="-88"/>
      <point x="-165" y="-92"/>
      <point x="-158" y="-109" type="curve"/>
      <point x="-102" y="-278" type="line"/>
    </contour>
  </outline>
</glyph>
<glyph name="uni1AC0" format="2">
  <unicode hex="1AC0"/>
  <anchor x="0" y="0" name="_bottom"/>
  <outline>
    <contour>
      <point x="43" y="-64" type="line"/>
      <point x="0" y="-172" type="line"/>
      <point x="-40" y="-64" type="line"/>
      <point x="-98" y="-64" type="line"/>
      <point x="-156" y="-223" type="line" smooth="yes"/>
      <point x="-165" y="-248"/>
      <point x="-172" y="-254"/>
      <point x="-189" y="-254" type="curve" smooth="yes"/>
      <point x="-195" y="-254" type="line"/>
      <point x="-195" y="-278" type="line"/>
      <point x="-87" y="-278" type="line"/>
      <point x="-87" y="-254" type="line"/>
      <point x="-90" y="-254" type="line" smooth="yes"/>
      <point x="-110" y="-254"/>
      <point x="-120" y="-248"/>
      <point x="-120" y="-234" type="curve" smooth="yes"/>
      <point x="-120" y="-230"/>
      <point x="-118" y="-221"/>
      <point x="-116" y="-214" type="curve" smooth="yes"/>
      <point x="-98" y="-160" type="line" smooth="yes"/>
      <point x="-95" y="-150"/>
      <point x="-92" y="-142"/>
      <point x="-90" y="-130" type="curve"/>
      <point x="-88" y="-130" type="line"/>
      <point x="-87" y="-138"/>
      <point x="-85" y="-149"/>
      <point x="-82" y="-158" type="curve" smooth="yes"/>
      <point x="-39" y="-276" type="line"/>
      <point x="-9" y="-276" type="line"/>
      <point x="36" y="-167" type="line" smooth="yes"/>
      <point x="41" y="-156"/>
      <point x="45" y="-143"/>
      <point x="47" y="-131" type="curve"/>
      <point x="49" y="-131" type="line"/>
      <point x="51" y="-142"/>
      <point x="56" y="-160"/>
      <point x="61" y="-179" type="curve" smooth="yes"/>
      <point x="72" y="-219" type="line" smooth="yes"/>
      <point x="74" y="-225"/>
      <point x="76" y="-233"/>
      <point x="76" y="-237" type="curve" smooth="yes"/>
      <point x="76" y="-250"/>
      <point x="67" y="-254"/>
      <point x="49" y="-254" type="curve" smooth="yes"/>
      <point x="43" y="-254" type="line"/>
      <point x="43" y="-278" type="line"/>
      <point x="192" y="-278" type="line"/>
      <point x="192" y="-254" type="line"/>
      <point x="190" y="-254" type="line" smooth="yes"/>
      <point x="172" y="-254"/>
      <point x="165" y="-250"/>
      <point x="158" y="-233" type="curve"/>
      <point x="102" y="-64" type="line"/>
    </contour>
  </outline>
</glyph>
<glyph name="uni1D2F" format="2">
  <advance width="468"/>
  <unicode hex="1D2F"/>
  <anchor x="234" y="287" name="bottom"/>
  <anchor x="234" y="715" name="top"/>
  <anchor x="455.0" y="715.4" name="topright"/>
  <outline>
    <contour>
      <point x="7" y="491" type="line"/>
      <point x="464" y="491" type="line"/>
      <point x="464" y="531" type="line"/>
      <point x="7" y="531" type="line"/>
    </contour>
    <component base="B" xScale="0.65" yScale="0.6" yOffset="287"/>
  </outline>
</glyph>
<glyph name="uni1D7A" format="2">
  <advance width="1152"/>
  <unicode hex="1D7A"/>
  <anchor x="272" y="0" name="bottom_1"/>
  <anchor x="788" y="0" name="bottom_2"/>
  <anchor x="202" y="268" name="center_1"/>
  <anchor x="788" y="268" name="center_2"/>
  <anchor x="222" y="661" name="top_1"/>
  <anchor x="628" y="760" name="top_2"/>
  <anchor x="274" y="1020" name="topright_1"/>
  <anchor x="1073" y="760" name="topright_2"/>
  <outline>
    <contour>
      <point x="44" y="-110" type="line"/>
      <point x="141" y="-110" type="line"/>
      <point x="959" y="760" type="line"/>
      <point x="866" y="760" type="line"/>
    </contour>
    <component base="t"/>
    <component base="h" xOffset="442"/>
  </outline>
</glyph>
<glyph name="uni1D7C" format="2">
  <advance width="436"/>
  <unicode hex="1D7C"/>
  <anchor x="218" y="0" name="bottom"/>
  <anchor x="218" y="536" name="top"/>
  <outline>
    <contour>
      <point x="2" y="269" type="line"/>
      <point x="408" y="269" type="line"/>
      <point x="408" y="335" type="line"/>
      <point x="2" y="335" type="line"/>
    </contour>
    <component base="iotaLatin"/>
  </outline>
</glyph>
<glyph name="uni1D7D" format="2">
  <advance width="668"/>
  <unicode hex="1D7D"/>
  <anchor x="181" y="-221" name="bottom"/>
  <anchor x="334" y="536" name="top"/>
  <anchor x="648" y="536" name="topright"/>
  <outline>
    <contour>
      <point x="-7" y="230" type="line"/>
      <point x="695" y="230" type="line"/>
      <point x="695" y="301" type="line"/>
      <point x="-7" y="301" type="line"/>
    </contour>
    <component base="p"/>
  </outline>
</glyph>
<glyph name="uni1D7F" format="2">
  <advance width="640"/>
  <unicode hex="1D7F"/>
  <anchor x="317" y="0" name="bottom"/>
  <anchor x="317" y="536" name="top"/>
  <outline>
    <contour>
      <point x="-2" y="263" type="line"/>
      <point x="642" y="263" type="line"/>
      <point x="642" y="329" type="line"/>
      <point x="-2" y="329" type="line"/>
    </contour>
    <component base="uni028A"/>
  </outline>
</glyph>
<glyph name="uni1D88" format="2">
  <advance width="668"/>
  <unicode hex="1D88"/>
  <anchor x="181" y="-221" name="bottom"/>
  <anchor x="334" y="536" name="top"/>
  <anchor x="648" y="536" name="topright"/>
  <outline>
    <contour>
      <point x="469" y="-207" type="curve" smooth="yes"/>
      <point x="548" y="-207"/>
      <point x="592" y="-149"/>
      <point x="592" y="-22" type="curve" smooth="yes"/>
      <point x="592" y="111" type="line"/>
      <point x="518" y="111" type="line"/>
      <point x="518" y="-29" type="line" smooth="yes"/>
      <point x="518" y="-84"/>
      <point x="495" y="-110"/>
      <point x="452" y="-110" type="curve" smooth="yes"/>
      <point x="430" y="-110"/>
      <point x="416" y="-103"/>
      <point x="403" y="-94" type="curve"/>
      <point x="394" y="-103"/>
      <point x="389" y="-120"/>
      <point x="389" y="-136" type="curve" smooth="yes"/>
      <point x="389" y="-179"/>
      <point x="419" y="-207"/>
    </contour>
    <component base="p"/>
  </outline>
</glyph>
<glyph name="doubleprimeReversed" format="2">
  <advance width="574"/>
  <unicode hex="2036"/>
  <outline>
    <contour>
      <point x="445" y="479" type="line"/>
      <point x="554" y="479" type="line"/>
      <point x="512" y="714" type="line"/>
      <point x="298" y="714" type="line"/>
    </contour>
    <contour>
      <point x="167" y="479" type="line"/>
      <point x="276" y="479" type="line"/>
      <point x="234" y="714" type="line"/>
      <point x="20" y="714" type="line"/>
    </contour>
  </outline>
</glyph>
<glyph name="quadrupleprime" format="2">
  <advance width="1130"/>
  <unicode hex="2057"/>
  <outline>
    <contour>
      <point x="854" y="479" type="line"/>
      <point x="963" y="479" type="line"/>
      <point x="1110" y="714" type="line"/>
      <point x="896" y="714" type="line"/>
    </contour>
    <contour>
      <point x="20" y="479" type="line"/>
      <point x="129" y="479" type="line"/>
      <point x="276" y="714" type="line"/>
      <point x="62" y="714" type="line"/>
    </contour>
    <contour>
      <point x="298" y="479" type="line"/>
      <point x="407" y="479" type="line"/>
      <point x="554" y="714" type="line"/>
      <point x="340" y="714" type="line"/>
    </contour>
    <contour>
      <point x="576" y="479" type="line"/>
      <point x="685" y="479" type="line"/>
      <point x="832" y="714" type="line"/>
      <point x="618" y="714" type="line"/>
    </contour>
  </outline>
</glyph>
<glyph name="Euro" format="2">
  <advance width="569"/>
  <unicode hex="20AC"/>
  <outline>
    <contour>
      <point x="349" y="-10" type="curve" smooth="yes"/>
      <point x="501" y="-10"/>
      <point x="552" y="57"/>
      <point x="552" y="118" type="curve" smooth="yes"/>
      <point x="552" y="135"/>
      <point x="544" y="158"/>
      <point x="525" y="173" type="curve"/>
      <point x="503" y="117"/>
      <point x="447" y="77"/>
      <point x="386" y="77" type="curve" smooth="yes"/>
      <point x="296" y="77"/>
      <point x="259" y="132"/>
      <point x="253" y="246" type="curve"/>
      <point x="386" y="246" type="line"/>
      <point x="386" y="319" type="line"/>
      <point x="247" y="319" type="line"/>
      <point x="247" y="375" type="line"/>
      <point x="426" y="375" type="line"/>
      <point x="426" y="448" type="line"/>
      <point x="252" y="448" type="line"/>
      <point x="260" y="600"/>
      <point x="291" y="649"/>
      <point x="342" y="649" type="curve" smooth="yes"/>
      <point x="391" y="649"/>
      <point x="405" y="590"/>
      <point x="405" y="517" type="curve"/>
      <point x="503" y="517"/>
      <point x="556" y="540"/>
      <point x="556" y="597" type="curve" smooth="yes"/>
      <point x="556" y="666"/>
      <point x="483" y="722"/>
      <point x="352" y="722" type="curve" smooth="yes"/>
      <point x="195" y="722"/>
      <point x="93" y="642"/>
      <point x="70" y="448" type="curve"/>
      <point x="22" y="448" type="line"/>
      <point x="22" y="375" type="line"/>
      <point x="63" y="375" type="line"/>
      <point x="63" y="319" type="line"/>
      <point x="22" y="319" type="line"/>
      <point x="22" y="246" type="line"/>
      <point x="71" y="246" type="line"/>
      <point x="96" y="51"/>
      <point x="203" y="-10"/>
    </contour>
  </outline>
</glyph>
<glyph name="uni20AD" format="2">
  <advance width="781"/>
  <unicode hex="20AD"/>
  <anchor x="434" y="0" name="bottom"/>
  <anchor x="414" y="714" name="top"/>
  <anchor x="761" y="714" name="topright"/>
  <outline>
    <contour>
      <point x="7" y="337" type="line"/>
      <point x="703" y="337" type="line"/>
      <point x="703" y="407" type="line"/>
      <point x="7" y="407" type="line"/>
    </contour>
    <component base="K"/>
  </outline>
</glyph>
<glyph name="uni20AE" format="2">
  <advance width="682"/>
  <unicode hex="20AE"/>
  <anchor x="341" y="0" name="bottom"/>
  <anchor x="341" y="357" name="center"/>
  <anchor x="341" y="714" name="top"/>
  <anchor x="662" y="714" name="topright"/>
  <outline>
    <contour>
      <point x="132" y="272" type="line"/>
      <point x="579" y="476" type="line"/>
      <point x="549" y="539" type="line"/>
      <point x="104" y="336" type="line"/>
    </contour>
    <contour>
      <point x="132" y="116" type="line"/>
      <point x="579" y="320" type="line"/>
      <point x="549" y="383" type="line"/>
      <point x="104" y="180" type="line"/>
    </contour>
    <component base="T"/>
  </outline>
</glyph>
<glyph name="uni20B5" format="2">
  <advance width="708"/>
  <unicode hex="20B5"/>
  <anchor x="404" y="0" name="bottom"/>
  <anchor x="414" y="714" name="top"/>
  <anchor x="688" y="714" name="topright"/>
  <outline>
    <contour>
      <point x="375" y="-81" type="line"/>
      <point x="435" y="-81" type="line"/>
      <point x="435" y="780" type="line"/>
      <point x="375" y="780" type="line"/>
    </contour>
    <component base="C"/>
  </outline>
</glyph>
<glyph name="response" format="2">
  <advance width="745"/>
  <unicode hex="211F"/>
  <anchor x="407" y="0" name="bottom"/>
  <anchor x="377" y="714" name="top"/>
  <anchor x="733" y="714" name="topright"/>
  <outline>
    <contour>
      <point x="100" y="-128" type="line"/>
      <point x="190" y="-125" type="line"/>
      <point x="557" y="806" type="line"/>
      <point x="315" y="900" type="line"/>
      <point x="282" y="825" type="line"/>
      <point x="452" y="762" type="line"/>
    </contour>
    <component base="R"/>
  </outline>
</glyph>
<glyph name="versicle" format="2">
  <advance width="715"/>
  <unicode hex="2123"/>
  <anchor x="358" y="0" name="bottom"/>
  <anchor x="410" y="714" name="top"/>
  <anchor x="695" y="714" name="topright"/>
  <outline>
    <contour>
      <point x="100" y="-128" type="line"/>
      <point x="190" y="-125" type="line"/>
      <point x="557" y="806" type="line"/>
      <point x="315" y="900" type="line"/>
      <point x="282" y="825" type="line"/>
      <point x="452" y="762" type="line"/>
    </contour>
    <component base="V"/>
  </outline>
</glyph>
<glyph name="uni2C60" format="2">
  <advance width="677"/>
  <unicode hex="2C60"/>
  <anchor x="339" y="0" name="bottom"/>
  <anchor x="339" y="714" name="top"/>
  <anchor x="220" y="357" name="center"/>
  <anchor x="657" y="714" name="topright"/>
  <outline>
    <contour>
      <point x="6" y="399" type="line"/>
      <point x="469" y="399" type="line"/>
      <point x="469" y="469" type="line"/>
      <point x="6" y="469" type="line"/>
    </contour>
    <contour>
      <point x="6" y="273" type="line"/>
      <point x="469" y="273" type="line"/>
      <point x="469" y="343" type="line"/>
      <point x="6" y="343" type="line"/>
    </contour>
    <component base="L"/>
  </outline>
</glyph>
<glyph name="uni2C66" format="2">
  <advance width="444"/>
  <unicode hex="2C66"/>
  <anchor x="222" y="-180" name="bottom"/>
  <anchor x="222" y="714" name="top"/>
  <anchor x="202" y="268" name="center"/>
  <anchor x="274" y="1020" name="topright"/>
  <outline>
    <contour>
      <point x="81" y="-180" type="line"/>
      <point x="168" y="-180" type="line"/>
      <point x="426" y="714" type="line"/>
      <point x="342" y="714" type="line"/>
    </contour>
    <component base="t"/>
  </outline>
</glyph>
<glyph name="olowringinside" format="2">
  <advance width="640"/>
  <unicode hex="2C7A"/>
  <anchor x="320" y="0" name="bottom"/>
  <anchor x="320" y="536" name="top"/>
  <outline>
    <contour>
      <point x="318" y="-10" type="curve" smooth="yes"/>
      <point x="502" y="-10"/>
      <point x="598" y="83"/>
      <point x="598" y="271" type="curve" smooth="yes"/>
      <point x="598" y="459"/>
      <point x="492" y="551"/>
      <point x="321" y="551" type="curve" smooth="yes"/>
      <point x="137" y="551"/>
      <point x="41" y="459"/>
      <point x="41" y="271" type="curve" smooth="yes"/>
      <point x="41" y="83"/>
      <point x="146" y="-10"/>
    </contour>
    <contour>
      <point x="321" y="67" type="curve" smooth="yes"/>
      <point x="288" y="67"/>
      <point x="271" y="94"/>
      <point x="271" y="121" type="curve" smooth="yes"/>
      <point x="271" y="146"/>
      <point x="288" y="169"/>
      <point x="321" y="169" type="curve" smooth="yes"/>
      <point x="353" y="169"/>
      <point x="371" y="146"/>
      <point x="371" y="121" type="curve" smooth="yes"/>
      <point x="371" y="94"/>
      <point x="353" y="67"/>
    </contour>
    <contour>
      <point x="241" y="204" type="curve"/>
      <point x="240" y="217"/>
      <point x="239" y="245"/>
      <point x="239" y="271" type="curve" smooth="yes"/>
      <point x="239" y="410"/>
      <point x="259" y="479"/>
      <point x="319" y="479" type="curve" smooth="yes"/>
      <point x="379" y="479"/>
      <point x="401" y="410"/>
      <point x="401" y="271" type="curve" smooth="yes"/>
      <point x="401" y="246"/>
      <point x="400" y="216"/>
      <point x="399" y="204" type="curve"/>
      <point x="383" y="226"/>
      <point x="359" y="244"/>
      <point x="321" y="244" type="curve" smooth="yes"/>
      <point x="283" y="244"/>
      <point x="257" y="227"/>
    </contour>
  </outline>
</glyph>
<glyph name="uni2E4A" format="2">
  <advance width="288"/>
  <unicode hex="2E4A"/>
  <outline>
    <contour>
      <point x="139" y="200" type="curve" smooth="yes"/>
      <point x="191" y="200"/>
      <point x="235" y="220"/>
      <point x="235" y="289" type="curve" smooth="yes"/>
      <point x="235" y="359"/>
      <point x="191" y="379"/>
      <point x="139" y="379" type="curve" smooth="yes"/>
      <point x="85" y="379"/>
      <point x="42" y="359"/>
      <point x="42" y="289" type="curve" smooth="yes"/>
      <point x="42" y="220"/>
      <point x="85" y="200"/>
    </contour>
    <component base="slash"/>
  </outline>
</glyph>
<glyph name="uni2E4C" format="2">
  <advance width="317"/>
  <unicode hex="2E4C"/>
  <outline>
    <contour>
      <point x="163" y="168" type="curve" smooth="yes"/>
      <point x="112" y="168"/>
      <point x="67" y="146"/>
      <point x="67" y="79" type="curve" smooth="yes"/>
      <point x="67" y="11"/>
      <point x="112" y="-10"/>
      <point x="163" y="-10" type="curve" smooth="yes"/>
      <point x="217" y="-10"/>
      <point x="259" y="11"/>
      <point x="259" y="79" type="curve" smooth="yes"/>
      <point x="259" y="146"/>
      <point x="217" y="168"/>
    </contour>
    <component base="uni2E45" xScale="0" xyScale="-1" yxScale="1" yScale="0" xOffset="-82" yOffset="591"/>
  </outline>
</glyph>
<glyph name="uniA680" format="2">
  <advance width="727"/>
  <unicode hex="A680"/>
  <anchor x="364" y="0" name="bottom"/>
  <anchor x="364" y="714" name="top"/>
  <outline>
    <contour>
      <point x="247" y="714" type="line"/>
      <point x="323" y="714" type="line"/>
      <point x="323" y="869" type="line"/>
      <point x="247" y="869" type="line"/>
    </contour>
    <component base="afii10021"/>
  </outline>
</glyph>
<glyph name="uniA681" format="2">
  <advance width="657"/>
  <unicode hex="A681"/>
  <anchor x="329" y="0" name="bottom"/>
  <anchor x="329" y="536" name="top"/>
  <outline>
    <contour>
      <point x="197" y="536" type="line"/>
      <point x="264" y="536" type="line"/>
      <point x="273" y="669" type="line"/>
      <point x="207" y="669" type="line"/>
    </contour>
    <component base="afii10069"/>
  </outline>
</glyph>
<glyph name="uniA740" format="2">
  <advance width="781"/>
  <unicode hex="A740"/>
  <anchor x="391" y="714" name="top"/>
  <anchor x="434" y="0" name="bottom"/>
  <anchor x="761" y="714" name="topright"/>
  <outline>
    <contour>
      <point x="21" y="526" type="line"/>
      <point x="406" y="526" type="line"/>
      <point x="406" y="589" type="line"/>
      <point x="21" y="589" type="line"/>
    </contour>
    <component base="K"/>
  </outline>
</glyph>
<glyph name="uniA743" format="2">
  <advance width="674"/>
  <unicode hex="A743"/>
  <anchor x="337" y="760" name="top"/>
  <anchor x="337" y="0" name="bottom"/>
  <anchor x="494" y="920" name="topright"/>
  <outline>
    <contour>
      <point x="341" y="79" type="line"/>
      <point x="604" y="268" type="line"/>
      <point x="565" y="318" type="line"/>
      <point x="303" y="131" type="line"/>
    </contour>
    <component base="k"/>
  </outline>
</glyph>
<glyph name="uniA745" format="2">
  <advance width="674"/>
  <unicode hex="A745"/>
  <anchor x="337" y="0" name="bottom"/>
  <anchor x="187" y="760" name="top"/>
  <anchor x="494" y="920" name="topright"/>
  <outline>
    <contour>
      <point x="341" y="79" type="line"/>
      <point x="604" y="268" type="line"/>
      <point x="565" y="318" type="line"/>
      <point x="303" y="131" type="line"/>
    </contour>
    <contour>
      <point x="16" y="570" type="line"/>
      <point x="398" y="570" type="line"/>
      <point x="398" y="635" type="line"/>
      <point x="16" y="635" type="line"/>
    </contour>
    <component base="k"/>
  </outline>
</glyph>
<glyph name="uniA748" format="2">
  <advance width="677"/>
  <unicode hex="A748"/>
  <anchor x="339" y="0" name="bottom"/>
  <anchor x="220" y="357" name="center"/>
  <anchor x="213" y="714" name="top"/>
  <anchor x="657" y="714" name="topright"/>
  <outline>
    <contour>
      <point x="21" y="526" type="line"/>
      <point x="406" y="526" type="line"/>
      <point x="406" y="589" type="line"/>
      <point x="21" y="589" type="line"/>
    </contour>
    <component base="L"/>
  </outline>
</glyph>
<glyph name="uniA74A" format="2">
  <advance width="820"/>
  <unicode hex="A74A"/>
  <anchor x="410" y="0" name="bottom"/>
  <anchor x="410" y="357" name="center"/>
  <anchor x="410" y="714" name="top"/>
  <anchor x="800" y="714" name="topright"/>
  <outline>
    <contour>
      <point x="1" y="338" type="line"/>
      <point x="820" y="338" type="line"/>
      <point x="820" y="407" type="line"/>
      <point x="1" y="407" type="line"/>
    </contour>
    <component base="O"/>
  </outline>
</glyph>
<glyph name="uniA74B" format="2">
  <advance width="640"/>
  <unicode hex="A74B"/>
  <anchor x="320" y="0" name="bottom"/>
  <anchor x="320" y="268" name="center"/>
  <anchor x="320" y="536" name="top"/>
  <anchor x="620" y="536" name="topright"/>
  <outline>
    <contour>
      <point x="1" y="247" type="line"/>
      <point x="639" y="247" type="line"/>
      <point x="639" y="315" type="line"/>
      <point x="1" y="315" type="line"/>
    </contour>
    <component base="o"/>
  </outline>
</glyph>
<glyph name="uniA750" format="2">
  <advance width="663"/>
  <unicode hex="A750"/>
  <anchor x="213" y="0" name="bottom"/>
  <anchor x="332" y="714" name="top"/>
  <anchor x="683" y="714" name="topright"/>
  <outline>
    <contour>
      <point x="21" y="145" type="line"/>
      <point x="426" y="145" type="line"/>
      <point x="426" y="208" type="line"/>
      <point x="21" y="208" type="line"/>
    </contour>
    <component base="P"/>
  </outline>
</glyph>
<glyph name="uniA751" format="2">
  <advance width="668"/>
  <unicode hex="A751"/>
  <anchor x="181" y="-221" name="bottom"/>
  <anchor x="334" y="536" name="top"/>
  <anchor x="648" y="536" name="topright"/>
  <outline>
    <contour>
      <point x="9" y="-112" type="line"/>
      <point x="399" y="-112" type="line"/>
      <point x="399" y="-48" type="line"/>
      <point x="9" y="-48" type="line"/>
    </contour>
    <component base="p"/>
  </outline>
</glyph>
<glyph name="uniA756" format="2">
  <advance width="820"/>
  <unicode hex="A756"/>
  <anchor x="410" y="-240" name="bottom"/>
  <anchor x="410" y="714" name="top"/>
  <anchor x="800" y="714" name="topright"/>
  <outline>
    <contour>
      <point x="306" y="-218" type="line"/>
      <point x="642" y="-79" type="line"/>
      <point x="621" y="-23" type="line"/>
      <point x="285" y="-162" type="line"/>
    </contour>
    <component base="Q"/>
  </outline>
</glyph>
<glyph name="uniA75E" format="2">
  <advance width="715"/>
  <unicode hex="A75E"/>
  <anchor x="358" y="0" name="bottom"/>
  <anchor x="410" y="714" name="top"/>
  <anchor x="695" y="714" name="topright"/>
  <outline>
    <contour>
      <point x="125" y="0" type="line"/>
      <point x="189" y="0" type="line"/>
      <point x="452" y="714" type="line"/>
      <point x="388" y="714" type="line"/>
    </contour>
    <component base="V"/>
  </outline>
</glyph>
<glyph name="uniA75F" format="2">
  <advance width="626"/>
  <unicode hex="A75F"/>
  <anchor x="323" y="0" name="bottom"/>
  <anchor x="371" y="536" name="top"/>
  <anchor x="636" y="536" name="topright"/>
  <outline>
    <contour>
      <point x="132" y="-50" type="line"/>
      <point x="198" y="-50" type="line"/>
      <point x="465" y="596" type="line"/>
      <point x="398" y="596" type="line"/>
    </contour>
    <component base="v"/>
  </outline>
</glyph>
<glyph name="uniA767" format="2">
  <advance width="668"/>
  <unicode hex="A767"/>
  <anchor x="334" y="-240" name="bottom"/>
  <anchor x="334" y="760" name="top"/>
  <outline>
    <contour>
      <point x="9" y="-112" type="line"/>
      <point x="399" y="-112" type="line"/>
      <point x="399" y="-48" type="line"/>
      <point x="9" y="-48" type="line"/>
    </contour>
    <component base="thorn"/>
  </outline>
</glyph>
<glyph name="uniA792" format="2">
  <advance width="708"/>
  <unicode hex="A792"/>
  <anchor x="404" y="0" name="bottom"/>
  <anchor x="414" y="714" name="top"/>
  <anchor x="688" y="714" name="topright"/>
  <outline>
    <contour>
      <point x="3" y="326" type="line"/>
      <point x="415" y="326" type="line"/>
      <point x="415" y="395" type="line"/>
      <point x="3" y="395" type="line"/>
    </contour>
    <component base="C"/>
  </outline>
</glyph>
<glyph name="uniA793" format="2">
  <advance width="617"/>
  <unicode hex="A793"/>
  <anchor x="348" y="0" name="bottom"/>
  <anchor x="355" y="536" name="top"/>
  <anchor x="584" y="536" name="topright"/>
  <outline>
    <contour>
      <point x="15" y="240" type="line"/>
      <point x="403" y="240" type="line"/>
      <point x="403" y="311" type="line"/>
      <point x="15" y="311" type="line"/>
    </contour>
    <component base="c" xOffset="51"/>
  </outline>
</glyph>
<glyph name="uniA799" format="2">
  <advance width="435"/>
  <unicode hex="A799"/>
  <anchor x="218" y="0" name="bottom"/>
  <anchor x="293" y="768" name="top"/>
  <anchor x="515" y="768" name="topright"/>
  <outline>
    <contour>
      <point x="20" y="228" type="line"/>
      <point x="432" y="228" type="line"/>
      <point x="432" y="311" type="line"/>
      <point x="20" y="311" type="line"/>
    </contour>
    <component base="f"/>
  </outline>
</glyph>
<glyph name="uniA7A0" format="2">
  <advance width="810"/>
  <unicode hex="A7A0"/>
  <anchor x="435" y="0" name="bottom"/>
  <anchor x="445" y="714" name="top"/>
  <anchor x="790" y="714" name="topright"/>
  <outline>
    <contour>
      <point x="1" y="226" type="line"/>
      <point x="775" y="397" type="line"/>
      <point x="775" y="461" type="line"/>
      <point x="1" y="290" type="line"/>
    </contour>
    <component base="G"/>
  </outline>
</glyph>
<glyph name="uniA7A3" format="2">
  <advance width="674"/>
  <unicode hex="A7A3"/>
  <anchor x="337" y="760" name="top"/>
  <anchor x="337" y="0" name="bottom"/>
  <anchor x="494" y="920" name="topright"/>
  <outline>
    <contour>
      <point x="28" y="88" type="line"/>
      <point x="623" y="184" type="line"/>
      <point x="623" y="249" type="line"/>
      <point x="28" y="153" type="line"/>
    </contour>
    <component base="k"/>
  </outline>
</glyph>
<glyph name="uniA7A6" format="2">
  <advance width="753"/>
  <unicode hex="A7A6"/>
  <anchor x="407" y="0" name="bottom"/>
  <anchor x="377" y="714" name="top"/>
  <anchor x="733" y="714" name="topright"/>
  <outline>
    <contour>
      <point x="21" y="400" type="line"/>
      <point x="746" y="570" type="line"/>
      <point x="746" y="634" type="line"/>
      <point x="21" y="464" type="line"/>
    </contour>
    <component base="R"/>
  </outline>
</glyph>
<glyph name="uniA7A7" format="2">
  <advance width="561"/>
  <unicode hex="A7A7"/>
  <anchor x="191" y="0" name="bottom"/>
  <anchor x="281" y="536" name="top"/>
  <anchor x="561" y="536" name="topright"/>
  <outline>
    <contour>
      <point x="4" y="166" type="line"/>
      <point x="409" y="241" type="line"/>
      <point x="409" y="306" type="line"/>
      <point x="4" y="231" type="line"/>
    </contour>
    <component base="r"/>
  </outline>
</glyph>
<glyph name="uniA7A8" format="2">
  <advance width="605"/>
  <unicode hex="A7A8"/>
  <anchor x="303" y="0" name="bottom"/>
  <anchor x="311" y="714" name="top"/>
  <anchor x="585" y="714" name="topright"/>
  <outline>
    <contour>
      <point x="7" y="273" type="line"/>
      <point x="597" y="410" type="line"/>
      <point x="597" y="474" type="line"/>
      <point x="7" y="337" type="line"/>
    </contour>
    <component base="S"/>
  </outline>
</glyph>
<glyph name="uniA7A9" format="2">
  <advance width="502"/>
  <unicode hex="A7A9"/>
  <anchor x="251" y="0" name="bottom"/>
  <anchor x="251" y="536" name="top"/>
  <anchor x="482" y="536" name="topright"/>
  <outline>
    <contour>
      <point x="17" y="196" type="line"/>
      <point x="485" y="300" type="line"/>
      <point x="485" y="365" type="line"/>
      <point x="17" y="261" type="line"/>
    </contour>
    <component base="s"/>
  </outline>
</glyph>
<glyph name="uniA7AF" format="2">
  <advance width="735"/>
  <unicode hex="A7AF"/>
  <anchor x="368" y="0" name="bottom"/>
  <anchor x="368" y="286" name="center"/>
  <anchor x="368" y="571" name="top"/>
  <anchor x="715" y="571" name="topright"/>
  <outline>
    <contour>
      <point x="532" y="-220" type="curve" smooth="yes"/>
      <point x="615" y="-220" type="line"/>
      <point x="615" y="-154" type="line"/>
      <point x="582" y="-154" type="line" smooth="yes"/>
      <point x="517" y="-154"/>
      <point x="458" y="-121"/>
      <point x="458" y="23" type="curve"/>
      <point x="269" y="18" type="line"/>
      <point x="269" y="-145"/>
      <point x="382" y="-220"/>
    </contour>
    <component base="o.sc"/>
  </outline>
</glyph>
<glyph name="uniA7B9" format="2">
  <advance width="691"/>
  <unicode hex="A7B9"/>
  <anchor x="543" y="0" name="bottom"/>
  <anchor x="344" y="536" name="top"/>
  <anchor x="661" y="536" name="topright"/>
  <outline>
    <contour>
      <point x="115" y="-21" type="line"/>
      <point x="195" y="-21" type="line"/>
      <point x="642" y="581" type="line"/>
      <point x="563" y="581" type="line"/>
    </contour>
    <component base="u"/>
  </outline>
</glyph>
<glyph name="uniA7C3" format="2">
  <advance width="1009"/>
  <unicode hex="A7C3"/>
  <outline>
    <contour>
      <point x="83" y="431" type="curve" smooth="yes"/>
      <point x="238" y="0" type="line"/>
      <point x="418" y="0" type="line"/>
      <point x="566" y="335" type="line" smooth="yes"/>
      <point x="617" y="452"/>
      <point x="665" y="476"/>
      <point x="704" y="476" type="curve" smooth="yes"/>
      <point x="750" y="476"/>
      <point x="767" y="447"/>
      <point x="767" y="395" type="curve" smooth="yes"/>
      <point x="767" y="348"/>
      <point x="754" y="319"/>
      <point x="711" y="307" type="curve"/>
      <point x="687" y="312"/>
      <point x="671" y="314"/>
      <point x="651" y="314" type="curve" smooth="yes"/>
      <point x="628" y="314"/>
      <point x="608" y="304"/>
      <point x="608" y="286" type="curve" smooth="yes"/>
      <point x="608" y="268"/>
      <point x="625" y="259"/>
      <point x="649" y="259" type="curve" smooth="yes"/>
      <point x="668" y="259"/>
      <point x="685" y="262"/>
      <point x="709" y="268" type="curve"/>
      <point x="777" y="254"/>
      <point x="792" y="210"/>
      <point x="792" y="150" type="curve" smooth="yes"/>
      <point x="792" y="93"/>
      <point x="759" y="55"/>
      <point x="700" y="55" type="curve" smooth="yes"/>
      <point x="691" y="55" type="line"/>
      <point x="618" y="194"/>
      <point x="573" y="325"/>
      <point x="573" y="454" type="curve" smooth="yes"/>
      <point x="573" y="512"/>
      <point x="582" y="569"/>
      <point x="602" y="626" type="curve"/>
      <point x="415" y="626" type="line"/>
      <point x="404" y="573"/>
      <point x="398" y="521"/>
      <point x="398" y="469" type="curve" smooth="yes"/>
      <point x="398" y="320"/>
      <point x="443" y="170"/>
      <point x="516" y="0" type="curve"/>
      <point x="659" y="0" type="line" smooth="yes"/>
      <point x="854" y="0"/>
      <point x="967" y="41"/>
      <point x="967" y="142" type="curve" smooth="yes"/>
      <point x="967" y="223"/>
      <point x="916" y="272"/>
      <point x="805" y="289" type="curve"/>
      <point x="900" y="309"/>
      <point x="941" y="346"/>
      <point x="941" y="411" type="curve" smooth="yes"/>
      <point x="941" y="480"/>
      <point x="878" y="538"/>
      <point x="732" y="538" type="curve" smooth="yes"/>
      <point x="626" y="538"/>
      <point x="556" y="502"/>
      <point x="501" y="383" type="curve" smooth="yes"/>
      <point x="382" y="124" type="line"/>
      <point x="371" y="153"/>
      <point x="361" y="182"/>
      <point x="349" y="217" type="curve" smooth="yes"/>
      <point x="284" y="406" type="line" smooth="yes"/>
      <point x="280" y="418"/>
      <point x="276" y="432"/>
      <point x="276" y="447" type="curve" smooth="yes"/>
      <point x="276" y="465"/>
      <point x="287" y="475"/>
      <point x="316" y="475" type="curve" smooth="yes"/>
      <point x="351" y="475" type="line"/>
      <point x="351" y="536" type="line"/>
      <point x="7" y="536" type="line"/>
      <point x="7" y="475" type="line"/>
      <point x="53" y="475"/>
      <point x="70" y="466"/>
    </contour>
  </outline>
</glyph>
<glyph name="uniA7C7" format="2">
  <advance width="796"/>
  <unicode hex="A7C7"/>
  <anchor x="388" y="0" name="bottom"/>
  <anchor x="398" y="357" name="center"/>
  <anchor x="386" y="714" name="top"/>
  <anchor x="776" y="714" name="topright"/>
  <outline>
    <contour>
      <point x="143" y="343" type="line"/>
      <point x="713" y="343" type="line"/>
      <point x="713" y="399" type="line"/>
      <point x="143" y="399" type="line"/>
    </contour>
    <component base="D"/>
  </outline>
</glyph>
<glyph name="uniA7C8" format="2">
  <advance width="675"/>
  <unicode hex="A7C8"/>
  <anchor x="338" y="0" name="bottom"/>
  <anchor x="338" y="268" name="center"/>
  <anchor x="472" y="760" name="top"/>
  <anchor x="635" y="760" name="topright"/>
  <outline>
    <contour>
      <point x="69" y="246" type="line"/>
      <point x="549" y="246" type="line"/>
      <point x="549" y="303" type="line"/>
      <point x="69" y="303" type="line"/>
    </contour>
    <component base="d"/>
  </outline>
</glyph>
<glyph name="uniA7C9" format="2">
  <advance width="605"/>
  <unicode hex="A7C9"/>
  <anchor x="303" y="0" name="bottom"/>
  <anchor x="311" y="714" name="top"/>
  <anchor x="585" y="714" name="topright"/>
  <outline>
    <contour>
      <point x="14" y="346" type="line"/>
      <point x="585" y="346" type="line"/>
      <point x="585" y="402" type="line"/>
      <point x="14" y="402" type="line"/>
    </contour>
    <component base="S"/>
  </outline>
</glyph>
<glyph name="uniA7CA" format="2">
  <advance width="502"/>
  <unicode hex="A7CA"/>
  <anchor x="251" y="0" name="bottom"/>
  <anchor x="251" y="536" name="top"/>
  <anchor x="482" y="536" name="topright"/>
  <outline>
    <contour>
      <point x="15" y="254" type="line"/>
      <point x="488" y="254" type="line"/>
      <point x="488" y="311" type="line"/>
      <point x="15" y="311" type="line"/>
    </contour>
    <component base="s"/>
  </outline>
</glyph>
<glyph name="uniAB30" format="2">
  <advance width="675"/>
  <unicode hex="AB30"/>
  <anchor x="338" y="0" name="bottom"/>
  <anchor x="338" y="536" name="top"/>
  <outline>
    <contour>
      <point x="-27" y="254" type="line"/>
      <point x="655" y="254" type="line"/>
      <point x="655" y="313" type="line"/>
      <point x="-27" y="313" type="line"/>
    </contour>
    <component base="uni0251"/>
  </outline>
</glyph>
<glyph name="uniAB69" format="2">
  <advance width="557"/>
  <unicode hex="AB69"/>
  <anchor x="256.95" y="287.4" name="bottom"/>
  <anchor x="-6.3" y="287.4" name="bottomleft"/>
  <anchor x="277.1" y="609" name="top"/>
  <outline>
    <contour>
      <point x="343" y="609" type="line"/>
      <point x="281" y="448" type="line"/>
      <point x="224" y="609" type="line"/>
      <point x="140" y="609" type="line"/>
      <point x="56" y="371" type="line" smooth="yes"/>
      <point x="42" y="333"/>
      <point x="33" y="324"/>
      <point x="7" y="324" type="curve" smooth="yes"/>
      <point x="-1" y="324" type="line"/>
      <point x="-1" y="287" type="line"/>
      <point x="155" y="287" type="line"/>
      <point x="155" y="324" type="line"/>
      <point x="150" y="324" type="line" smooth="yes"/>
      <point x="122" y="324"/>
      <point x="107" y="333"/>
      <point x="107" y="353" type="curve" smooth="yes"/>
      <point x="107" y="360"/>
      <point x="110" y="373"/>
      <point x="113" y="383" type="curve" smooth="yes"/>
      <point x="139" y="464" type="line" smooth="yes"/>
      <point x="145" y="480"/>
      <point x="148" y="491"/>
      <point x="151" y="509" type="curve"/>
      <point x="154" y="509" type="line"/>
      <point x="155" y="498"/>
      <point x="158" y="482"/>
      <point x="163" y="468" type="curve" smooth="yes"/>
      <point x="224" y="291" type="line"/>
      <point x="267" y="291" type="line"/>
      <point x="333" y="455" type="line" smooth="yes"/>
      <point x="340" y="470"/>
      <point x="347" y="490"/>
      <point x="349" y="509" type="curve"/>
      <point x="352" y="509" type="line"/>
      <point x="354" y="491"/>
      <point x="362" y="465"/>
      <point x="369" y="436" type="curve" smooth="yes"/>
      <point x="386" y="376" type="line" smooth="yes"/>
      <point x="388" y="367"/>
      <point x="391" y="356"/>
      <point x="391" y="349" type="curve" smooth="yes"/>
      <point x="391" y="329"/>
      <point x="378" y="324"/>
      <point x="352" y="324" type="curve" smooth="yes"/>
      <point x="343" y="324" type="line"/>
      <point x="343" y="287" type="line"/>
      <point x="558" y="287" type="line"/>
      <point x="558" y="324" type="line"/>
      <point x="555" y="324" type="line" smooth="yes"/>
      <point x="530" y="324"/>
      <point x="520" y="331"/>
      <point x="510" y="356" type="curve"/>
      <point x="428" y="609" type="line"/>
    </contour>
  </outline>
</glyph>
<glyph name="uni0268dotless" format="2">
  <advance width="376"/>
  <anchor x="188" y="0" name="bottom"/>
  <anchor x="188" y="536" name="top"/>
  <outline>
    <contour>
      <point x="3" y="235" type="line"/>
      <point x="371" y="235" type="line"/>
      <point x="371" y="301" type="line"/>
      <point x="3" y="301" type="line"/>
    </contour>
    <component base="idotless"/>
  </outline>
</glyph>
